{"glyphs":{"0":{"ha":883,"x_min":40,"x_max":843,"o":"m 843 553 q 797 478 797 533 q 744 236 797 368 q 589 46 696 117 q 436 0 519 0 q 282 46 343 0 q 135 243 178 124 q 104 356 118 290 q 86 485 86 433 q 40 558 86 538 q 82 647 75 586 q 93 750 88 699 q 106 792 99 767 q 282 1065 160 981 q 439 1111 349 1111 q 629 1043 544 1111 q 749 878 706 981 q 806 617 806 740 q 843 553 806 572 m 589 619 l 586 663 l 578 747 q 558 825 575 771 q 439 949 519 949 q 364 899 389 943 q 314 763 325 831 l 303 693 l 303 603 q 338 554 307 568 q 301 497 301 539 q 308 400 301 436 l 329 292 q 358 215 336 258 q 432 165 376 165 l 446 167 q 517 210 490 171 q 575 360 565 279 q 586 458 586 399 l 586 478 l 585 506 q 551 557 579 536 q 589 619 592 581 z "},"1":{"ha":542,"x_min":25,"x_max":517,"o":"m 517 104 q 506 58 517 81 q 449 8 486 19 q 399 0 422 0 q 294 42 339 0 q 250 18 272 24 q 194 4 224 4 q 90 53 131 4 q 69 111 69 78 q 74 140 69 128 q 100 136 82 136 q 172 179 151 136 l 181 206 l 185 231 l 189 547 q 144 606 189 594 q 180 628 167 610 q 190 669 193 647 l 193 921 q 167 965 197 956 l 153 969 l 138 964 q 122 939 125 957 q 131 897 122 914 q 104 892 118 892 q 47 918 68 892 q 25 982 25 944 l 29 1014 q 79 1081 40 1058 q 172 1111 122 1111 l 201 1108 q 331 1075 242 1104 q 347 1081 340 1075 q 411 1099 375 1099 q 456 1092 432 1099 q 403 986 403 1051 l 403 975 l 401 664 q 424 617 401 632 l 456 601 l 436 592 l 421 581 q 399 538 399 565 l 394 215 q 447 132 393 157 q 481 126 460 126 l 513 132 l 517 104 z "},"2":{"ha":760,"x_min":35,"x_max":726,"o":"m 725 94 q 707 32 726 63 q 639 0 679 0 l 619 3 q 616 26 622 17 q 596 36 610 36 q 560 42 575 42 l 519 36 l 440 19 l 414 17 l 397 15 q 339 22 378 14 l 244 43 q 203 49 219 49 q 125 31 163 49 q 90 18 101 19 l 61 15 q 36 14 47 14 q 203 469 36 242 q 286 572 242 524 q 301 610 301 589 l 299 625 q 390 675 353 635 q 471 839 471 761 q 447 925 471 885 q 357 971 411 971 l 342 969 q 247 913 282 964 q 236 878 236 896 q 304 815 236 815 q 218 724 279 756 q 150 706 183 706 q 68 735 101 706 q 35 813 35 765 q 76 908 35 868 q 36 986 42 939 l 35 997 q 60 1069 35 1038 q 92 1044 75 1050 l 108 1042 l 133 1047 l 257 1090 q 408 1111 332 1117 l 471 1107 q 657 983 610 1081 q 688 850 688 922 q 683 792 688 813 l 678 761 q 667 728 675 753 l 642 669 q 636 647 636 661 q 649 614 636 629 q 551 569 588 594 q 521 546 546 565 q 221 183 329 396 l 296 219 q 369 238 333 238 q 431 226 400 238 l 497 211 q 521 208 503 208 l 558 214 q 597 258 589 228 l 600 276 q 589 314 597 301 q 653 289 626 314 q 681 228 681 264 q 674 193 681 211 q 719 126 707 167 l 724 117 l 725 94 z "},"3":{"ha":786,"x_min":35,"x_max":750,"o":"m 750 283 q 718 260 728 272 q 703 222 708 247 q 647 111 688 160 q 401 0 557 0 q 258 26 335 0 l 214 42 l 171 58 l 150 65 l 136 67 l 107 63 q 69 19 76 47 q 39 86 39 49 q 47 121 42 111 q 85 171 60 149 q 38 244 40 199 l 36 265 q 53 328 35 294 q 181 411 100 411 q 343 319 289 411 q 307 308 325 319 q 261 257 265 296 l 260 244 q 304 171 260 194 q 360 156 333 156 q 426 176 392 156 q 464 231 460 196 l 465 243 q 447 294 465 272 q 496 369 496 315 l 492 396 q 458 464 486 433 q 392 503 429 494 q 360 511 372 510 q 331 513 347 513 l 281 642 q 418 685 354 642 q 469 764 461 714 q 456 799 469 790 l 442 813 q 486 860 474 826 l 492 883 q 472 932 492 913 q 417 960 450 960 l 403 958 q 342 930 368 956 q 317 871 317 904 l 319 854 q 369 807 326 814 q 233 718 326 718 q 133 769 158 718 q 117 836 117 803 q 151 931 117 888 q 118 1025 118 972 q 153 1081 122 1063 l 158 1064 q 168 1053 161 1054 q 197 1042 179 1042 q 258 1063 235 1042 q 381 1106 325 1099 l 413 1110 l 442 1111 q 544 1092 486 1114 q 685 954 658 1050 l 694 919 l 700 881 q 742 797 700 835 q 697 754 714 783 q 665 697 681 725 q 547 599 621 628 q 688 456 649 554 q 711 342 711 396 q 750 283 717 301 z "},"4":{"ha":781,"x_min":36,"x_max":744,"o":"m 744 469 l 743 457 q 714 407 740 428 q 733 381 731 392 q 740 350 740 364 q 721 290 740 314 q 671 325 708 324 l 608 326 l 606 229 q 619 178 604 204 q 656 142 633 153 q 692 132 671 132 q 725 142 714 135 q 731 106 731 126 q 715 49 731 76 q 667 13 694 22 q 603 3 639 3 q 504 47 547 11 l 468 19 q 397 0 433 0 q 319 26 349 0 q 286 101 286 56 q 293 139 286 118 q 319 136 303 136 q 353 142 336 136 q 400 214 400 167 l 399 332 l 99 333 l 36 488 q 79 522 65 499 l 338 976 q 343 997 343 986 q 318 1028 343 1022 q 286 1019 296 1025 q 319 1074 297 1051 q 419 1111 369 1115 l 439 1110 q 485 1101 467 1108 l 531 1079 q 585 1106 556 1101 l 611 1110 q 658 1097 638 1110 q 614 1013 614 1060 l 613 688 q 631 633 613 658 l 643 624 l 658 613 q 610 546 615 589 l 610 483 q 629 481 621 481 l 668 481 q 719 517 704 481 q 744 469 744 497 m 403 482 l 403 514 l 400 556 q 387 589 396 575 q 360 611 378 603 q 401 676 401 632 l 401 782 l 228 482 l 403 482 z "},"5":{"ha":764,"x_min":35,"x_max":729,"o":"m 729 424 l 713 411 q 681 356 681 388 l 658 253 q 528 57 635 142 q 365 0 450 -6 l 321 3 q 190 39 261 7 l 147 53 l 131 56 q 69 4 82 56 q 38 74 38 32 q 49 118 38 96 l 79 160 q 35 253 35 199 q 92 372 35 331 q 182 403 138 406 l 203 401 q 264 376 247 388 l 321 340 q 253 242 253 310 q 293 174 253 193 q 313 162 303 165 q 335 158 322 158 q 424 192 390 158 q 457 264 453 231 l 461 297 l 463 314 l 458 357 q 413 415 444 400 q 446 449 432 431 q 458 492 458 472 q 424 584 458 542 q 342 626 390 626 q 293 613 321 626 q 226 536 243 588 l 44 567 q 69 636 69 600 l 67 656 l 69 1043 q 36 1107 69 1088 l 81 1110 l 118 1108 l 153 1100 q 231 1042 201 1088 q 314 1103 263 1092 q 365 1111 339 1111 q 486 1094 432 1111 q 542 1081 521 1083 l 601 1078 q 700 1107 654 1085 l 703 1083 q 669 988 703 1029 q 700 924 706 963 q 663 931 676 931 q 622 922 635 928 l 599 913 l 569 904 l 544 903 l 521 903 q 486 906 508 903 l 431 918 l 392 931 l 364 936 l 333 939 q 222 908 276 939 l 221 704 q 319 757 264 743 l 347 764 q 394 768 364 768 l 436 764 q 622 625 557 739 q 672 490 660 560 l 683 460 q 729 424 701 431 z "},"6":{"ha":868,"x_min":28,"x_max":817,"o":"m 817 443 q 774 383 783 424 l 768 361 l 765 335 q 725 190 757 260 q 605 49 683 101 q 454 0 526 -4 l 429 1 q 253 65 321 7 q 181 143 214 97 q 125 238 139 197 l 89 343 q 50 385 78 374 l 28 393 q 46 413 42 403 q 63 465 63 439 l 63 489 l 64 514 l 63 608 l 65 689 l 76 756 q 239 1033 131 943 q 426 1096 314 1096 l 483 1090 l 540 1076 l 597 1060 l 618 1057 q 675 1086 656 1057 l 688 1111 q 713 1065 708 1092 l 717 1039 q 683 963 717 996 q 731 890 710 938 q 740 839 740 867 q 663 725 740 753 q 607 713 638 713 q 560 721 581 713 l 504 743 q 460 779 479 760 q 507 803 488 779 q 521 847 521 826 l 519 860 q 494 918 519 894 q 433 942 468 942 q 393 932 413 942 q 304 799 314 892 q 294 694 294 751 l 294 586 l 313 613 l 335 633 q 435 683 378 674 q 499 692 467 692 q 575 681 532 692 q 696 597 656 660 q 725 551 710 581 q 747 504 729 546 q 786 458 758 478 l 801 447 l 817 443 m 563 314 l 563 328 q 554 381 563 353 q 508 418 538 413 q 529 464 529 439 l 525 489 q 492 526 524 510 q 465 539 476 538 q 435 540 453 540 q 349 490 382 533 q 315 392 311 443 l 321 311 q 353 213 324 263 q 368 189 360 199 q 438 150 397 154 q 525 197 500 150 q 561 301 554 240 l 563 314 z "},"7":{"ha":758,"x_min":35,"x_max":726,"o":"m 724 1092 q 686 971 726 1047 q 660 935 683 967 l 590 840 l 528 744 q 483 589 485 658 q 496 560 483 571 l 508 546 q 432 457 446 522 q 419 386 426 433 l 415 314 q 421 254 414 290 q 436 197 428 218 q 501 103 460 138 l 494 81 q 397 3 461 21 l 371 0 q 286 40 319 0 q 231 3 263 8 q 185 201 185 97 l 185 219 l 186 243 l 194 296 q 236 464 208 381 l 242 481 l 246 504 q 232 542 247 526 l 225 550 q 301 604 268 567 q 500 901 424 738 l 422 914 q 351 936 394 918 l 322 943 q 303 946 318 946 q 265 936 282 946 l 246 918 q 236 900 238 907 q 231 878 231 890 q 247 842 233 854 q 282 825 263 825 q 307 831 297 825 q 222 726 299 750 l 197 721 q 175 719 190 719 q 108 733 143 719 q 35 839 46 768 l 36 894 q 47 942 39 908 l 75 1021 q 85 1081 85 1049 l 82 1106 q 189 1064 126 1064 q 246 1075 214 1064 l 313 1099 q 399 1110 353 1113 l 454 1106 l 597 1081 l 628 1078 l 664 1082 l 703 1099 l 722 1111 l 724 1092 z "},"8":{"ha":822,"x_min":38,"x_max":785,"o":"m 785 303 l 769 297 q 733 242 739 281 q 681 120 724 176 q 578 36 639 64 q 479 8 536 18 q 365 1 436 1 q 183 68 278 1 q 92 196 125 108 l 85 214 l 78 246 q 64 268 76 258 l 51 278 l 38 286 l 53 292 q 85 328 75 300 q 163 464 110 406 l 247 558 l 214 588 q 99 786 126 664 q 74 821 93 813 l 56 829 l 72 838 q 103 881 97 850 q 188 1031 118 971 q 371 1110 274 1104 l 397 1111 q 565 1062 489 1115 q 667 921 640 1008 q 708 853 681 874 l 725 847 l 706 840 q 663 786 674 819 q 556 611 629 685 q 672 514 628 568 q 739 347 731 442 q 767 314 739 321 l 785 303 m 494 833 q 473 906 494 864 q 406 947 451 947 q 336 901 363 947 q 319 832 315 865 q 351 747 319 783 q 415 686 375 711 q 476 756 464 722 l 490 792 l 494 833 m 515 294 q 388 458 496 399 q 314 386 346 428 q 279 294 279 340 q 311 203 279 243 q 393 163 343 163 q 408 164 403 164 q 489 208 457 164 q 515 294 515 244 z "},"9":{"ha":868,"x_min":40,"x_max":829,"o":"m 829 718 l 808 699 q 792 646 796 676 l 792 446 q 789 422 789 429 l 778 350 q 719 206 750 261 q 678 138 707 183 q 532 31 611 57 q 429 15 485 15 l 372 21 l 314 35 l 258 51 l 236 54 q 181 25 200 54 l 168 0 q 142 46 150 18 l 139 69 q 174 149 139 118 q 125 222 142 181 q 115 269 115 246 q 122 314 115 289 q 193 386 143 365 q 249 399 226 400 l 275 397 l 297 390 q 397 332 358 371 q 349 308 365 332 q 336 251 332 283 q 362 193 336 217 q 422 169 388 169 q 525 233 488 169 q 553 308 549 274 l 561 382 l 564 450 l 564 501 q 561 525 561 518 q 521 478 544 497 q 358 419 454 419 q 281 431 325 419 q 158 514 197 451 l 131 558 q 108 607 122 571 q 69 653 96 638 q 53 663 67 657 l 40 668 q 81 728 71 688 l 92 776 q 133 926 103 864 q 251 1063 174 1011 q 401 1111 329 1115 l 425 1110 q 521 1094 488 1106 q 603 1047 565 1079 q 731 874 697 967 l 754 807 l 768 763 q 806 726 776 736 l 829 718 m 540 719 l 535 800 q 526 849 533 825 q 515 875 518 867 l 488 922 q 418 961 461 957 q 331 914 360 961 q 294 810 301 867 l 292 788 l 294 757 l 301 731 q 347 693 317 700 q 326 647 326 674 l 329 632 q 360 585 335 599 q 419 571 386 571 q 509 621 474 576 q 540 719 544 665 z "},"\r":{"ha":364,"x_min":0,"x_max":0,"o":""}," ":{"ha":364,"x_min":0,"x_max":0,"o":""},"!":{"ha":208,"x_min":-1,"x_max":207,"o":"m 207 682 l 194 674 l 186 667 q 171 629 172 658 l 142 186 l 71 186 l 32 639 q 0 686 29 679 q 25 708 14 690 q 32 742 32 715 l 32 957 l 35 1011 q -1 1101 38 1063 q 36 1111 18 1111 q 103 1060 79 1111 q 171 1111 131 1111 q 207 1101 189 1111 q 171 1011 171 1063 l 171 736 q 186 697 171 706 l 207 682 m 183 67 q 158 18 183 36 q 103 0 133 0 q 47 17 71 0 q 19 67 19 36 q 46 114 19 96 q 103 132 72 132 q 159 115 135 132 q 183 67 183 97 z "},"\"":{"ha":386,"x_min":26,"x_max":368,"o":"m 368 1026 q 310 910 368 947 q 281 897 294 903 q 285 907 283 904 q 297 951 297 936 q 289 981 297 968 q 268 978 282 978 q 226 997 243 978 q 210 1043 210 1017 q 236 1090 210 1072 q 289 1106 258 1106 q 340 1088 317 1108 q 368 1026 368 1061 m 185 1026 q 126 910 185 947 q 97 897 111 903 q 101 907 100 904 q 114 951 114 936 q 106 981 114 968 q 85 978 99 978 q 43 997 60 978 q 26 1043 26 1017 q 53 1090 26 1072 q 106 1106 75 1106 q 157 1088 133 1108 q 185 1026 185 1061 z "},"$":{"ha":494,"x_min":22,"x_max":471,"o":"m 471 308 q 444 192 471 253 q 367 97 418 132 q 271 61 317 61 l 271 0 l 229 0 l 229 61 q 119 100 169 61 q 39 57 85 67 q 49 139 50 96 l 47 185 l 39 222 l 32 250 q 22 292 22 275 q 29 328 22 308 q 74 378 47 375 l 101 381 q 158 368 133 381 q 149 307 149 332 q 215 193 149 210 l 229 192 l 229 494 q 163 510 201 510 l 164 522 q 129 603 164 569 q 58 697 82 649 q 35 765 43 728 q 26 833 26 801 l 28 847 l 29 864 q 72 974 33 915 q 229 1042 129 1042 l 229 1111 l 271 1111 l 271 1042 q 369 1003 328 1032 q 446 1043 393 1043 q 431 971 429 1003 l 432 942 l 438 917 l 447 882 q 453 853 453 863 q 378 747 453 756 l 367 747 q 317 761 336 747 q 333 824 333 790 l 331 854 q 283 911 319 896 l 271 914 l 271 657 l 276 654 q 365 625 317 625 l 364 608 q 381 556 361 582 q 463 375 439 475 q 471 308 471 340 m 229 694 l 229 914 l 203 901 q 165 839 168 879 l 164 819 q 176 767 163 797 q 229 694 197 732 m 333 292 l 333 308 q 304 417 333 364 q 271 463 289 444 l 271 197 q 296 211 286 204 q 333 292 333 240 z "},"&":{"ha":642,"x_min":29,"x_max":613,"o":"m 613 378 l 610 357 q 552 324 575 351 q 529 261 529 296 q 481 86 529 168 q 404 21 447 42 q 308 0 353 -3 l 289 1 q 201 17 232 6 q 125 64 158 32 q 58 201 74 125 q 53 251 53 224 q 29 342 53 299 q 61 414 57 378 l 67 471 l 79 528 q 181 646 114 599 q 122 758 122 692 l 125 786 q 92 856 125 831 q 121 939 121 893 q 147 1031 121 985 q 308 1111 194 1111 q 438 1072 376 1111 q 546 1108 486 1108 q 510 1022 515 1074 q 508 990 508 1008 q 515 931 508 963 l 517 914 q 489 838 519 874 q 424 799 458 803 l 411 797 q 353 817 381 797 q 385 892 378 846 l 389 918 l 388 931 l 383 947 q 342 988 371 976 q 301 976 318 990 q 283 939 283 963 q 275 847 275 903 l 275 821 q 324 719 275 750 q 428 700 378 700 q 401 625 432 657 q 419 582 421 607 l 418 565 l 342 561 l 275 550 q 214 464 225 521 q 204 376 204 415 l 203 260 q 257 149 203 192 q 299 133 276 133 l 310 135 q 379 221 364 142 q 385 281 385 256 q 363 339 385 314 q 308 364 342 364 l 307 385 q 314 419 306 401 q 389 468 336 468 l 410 465 q 456 432 442 456 q 525 465 485 465 q 564 457 550 463 q 613 378 613 432 z "},"'":{"ha":207,"x_min":26,"x_max":185,"o":"m 185 1026 q 126 910 185 947 q 97 897 111 903 q 101 907 100 904 q 114 951 114 936 q 106 981 114 968 q 85 978 99 978 q 43 997 60 978 q 26 1043 26 1017 q 53 1090 26 1072 q 106 1106 75 1106 q 157 1088 133 1108 q 185 1026 185 1061 z "},"*":{"ha":458,"x_min":14,"x_max":446,"o":"m 446 49 q 390 -7 439 -7 q 346 8 363 -7 q 311 -6 332 -6 l 294 -3 q 257 38 264 6 q 285 118 285 78 l 283 133 l 281 150 l 272 178 l 179 176 l 174 138 l 171 126 l 171 115 q 203 43 171 71 q 176 1 200 13 q 149 -6 164 -6 q 108 11 124 -6 q 72 -6 96 -1 l 64 -7 q 14 35 24 -1 q 64 110 47 63 q 65 119 65 115 q 71 150 71 131 l 83 229 q 86 251 86 239 l 86 269 l 88 285 q 74 335 88 307 q 101 379 97 353 l 129 568 q 122 601 126 592 q 103 625 118 611 q 160 674 121 668 q 217 653 193 674 q 265 672 236 672 q 282 671 281 672 q 335 640 310 667 l 317 614 q 304 574 304 596 l 306 564 l 335 399 q 378 340 342 361 q 357 285 357 313 l 361 257 l 392 124 q 446 49 403 74 m 254 279 l 222 511 l 193 279 l 254 279 z "},",":{"ha":207,"x_min":26,"x_max":185,"o":"m 185 58 q 126 -58 185 -24 q 97 -71 108 -64 q 101 -61 100 -64 q 114 -17 114 -32 q 106 11 114 -1 q 86 8 92 8 q 43 28 60 8 q 26 75 26 47 q 51 119 26 103 q 106 136 76 136 q 157 119 133 140 q 185 58 185 93 z "},"-":{"ha":858,"x_min":114,"x_max":732,"o":"m 732 640 l 643 463 l 114 461 l 203 639 l 732 640 z "},".":{"ha":203,"x_min":24,"x_max":179,"o":"m 24 69 q 48 23 24 40 q 101 6 72 6 q 156 22 132 6 q 179 69 179 39 q 155 115 179 97 q 101 132 131 132 q 47 115 71 132 q 24 69 24 99 z "},"?":{"ha":475,"x_min":21,"x_max":453,"o":"m 453 753 q 426 733 433 740 q 408 706 413 721 q 267 532 374 593 l 249 197 l 178 192 l 133 575 q 244 619 197 575 q 292 728 292 664 q 276 772 292 751 l 264 789 q 308 847 293 807 q 311 862 308 853 q 314 875 314 871 q 292 938 314 908 q 239 968 271 968 l 225 967 q 164 925 196 967 q 143 860 143 897 l 146 840 q 190 782 146 792 l 174 721 q 101 663 158 663 q 69 671 94 663 q 25 758 39 685 q 21 797 21 781 q 43 906 21 846 q 21 1014 21 961 q 46 1076 21 1051 l 51 1057 l 57 1044 q 76 1031 63 1031 q 121 1057 94 1031 q 203 1104 163 1099 l 225 1110 l 246 1111 q 318 1089 276 1113 q 415 932 400 1042 l 421 892 q 423 869 421 885 q 425 847 425 854 q 433 796 425 840 q 453 753 436 781 m 286 67 q 260 18 286 36 q 203 0 235 0 q 147 19 172 0 q 121 67 121 38 q 146 115 121 97 q 203 133 171 133 q 260 115 235 133 q 286 67 286 97 z "},"@":{"ha":388,"x_min":26,"x_max":375,"o":"m 375 672 q 361 622 360 636 l 363 603 l 367 533 q 336 456 369 490 q 294 440 322 440 q 260 456 274 443 q 267 499 267 486 q 260 541 267 525 q 238 568 254 557 l 231 571 l 221 571 l 207 569 q 175 551 196 567 q 161 518 163 536 l 157 447 l 157 394 q 182 339 164 365 q 156 269 156 304 l 157 254 q 154 233 154 243 l 154 217 q 165 131 154 182 q 210 96 179 100 l 218 96 q 264 132 256 96 l 265 143 l 265 161 q 257 221 265 193 l 292 226 l 304 225 l 322 222 q 350 203 338 218 q 363 164 363 188 l 363 131 l 360 97 l 358 71 l 360 38 l 369 -1 q 303 17 325 -1 q 218 -7 265 -7 q 96 44 138 -7 q 61 145 61 85 q 54 278 61 206 q 26 340 54 308 q 56 403 56 369 l 56 440 l 57 496 l 61 550 q 106 632 71 599 q 189 668 140 665 q 213 669 203 668 q 301 647 263 669 q 324 665 314 663 q 358 674 336 675 l 375 672 z "},"A":{"ha":764,"x_min":35,"x_max":729,"o":"m 729 75 q 694 10 729 32 q 651 0 675 0 q 576 31 607 0 q 518 3 554 3 l 493 7 q 439 61 450 14 q 486 197 490 126 l 485 225 l 479 253 l 464 307 l 289 306 l 278 232 l 274 210 l 274 193 q 325 64 274 115 q 249 3 318 3 q 181 36 206 3 q 119 1 154 6 l 108 0 q 35 54 53 0 q 108 156 85 94 q 126 217 114 165 q 131 247 131 233 l 151 379 l 156 447 l 158 475 q 136 553 158 521 q 181 629 174 582 l 226 949 q 186 1044 229 1001 q 269 1111 211 1103 q 361 1072 329 1111 q 443 1108 399 1111 l 468 1107 q 542 1064 511 1104 l 519 1029 q 496 953 496 992 l 497 938 l 546 661 q 611 563 557 599 q 583 474 583 525 q 590 426 583 457 l 642 203 q 729 75 661 117 m 438 454 l 361 865 l 307 453 l 438 454 z "},"B":{"ha":664,"x_min":31,"x_max":633,"o":"m 633 319 q 597 258 597 297 q 576 143 597 196 q 502 51 554 90 q 393 4 450 13 l 375 0 l 346 0 q 186 53 256 0 q 104 8 161 8 q 32 67 49 17 q 103 232 103 129 l 104 453 q 63 558 104 519 q 107 664 113 604 l 106 681 l 103 814 l 99 919 q 31 1040 89 993 q 103 1101 53 1088 l 122 1103 q 153 1097 138 1104 q 186 1058 178 1082 q 343 1111 257 1111 q 406 1103 378 1111 q 567 1001 508 1086 q 596 881 596 940 q 633 818 604 842 q 597 746 594 790 l 599 725 l 597 701 l 593 678 q 519 561 574 606 q 586 468 569 525 l 592 433 l 594 392 q 633 319 603 346 m 450 872 l 444 901 q 369 967 422 954 q 343 969 358 969 q 260 911 282 969 q 249 833 249 872 l 247 632 l 299 629 l 322 629 l 364 632 q 419 663 389 636 q 447 733 450 697 l 446 751 q 417 810 440 785 q 450 872 450 835 m 457 254 q 415 326 457 299 q 450 403 450 360 l 450 408 l 449 418 q 400 481 442 468 q 292 496 350 496 l 246 492 l 244 210 q 258 175 247 197 q 328 147 278 153 q 421 181 383 147 q 457 254 457 207 z "},"C":{"ha":603,"x_min":28,"x_max":576,"o":"m 214 376 l 214 361 q 231 214 214 285 q 318 147 256 156 l 332 147 q 418 217 403 147 l 422 236 l 422 268 q 410 358 422 318 q 454 365 433 367 l 475 364 l 503 358 q 547 327 531 353 q 561 272 563 301 l 560 217 l 556 164 q 553 139 553 153 l 553 88 q 556 60 553 71 l 568 8 q 474 42 514 8 q 331 0 407 0 q 197 33 257 0 q 104 131 133 68 q 81 242 81 181 q 69 464 81 346 q 28 564 69 519 q 72 672 72 610 l 72 733 l 75 826 l 81 915 q 238 1092 114 1056 q 322 1104 281 1104 q 474 1065 404 1104 q 511 1100 490 1089 q 563 1111 532 1111 l 576 1110 q 557 1036 554 1068 l 560 1003 l 567 889 q 518 768 571 819 q 460 746 496 746 q 411 761 433 746 q 424 831 424 799 q 411 909 424 876 q 369 957 399 942 q 351 963 360 963 l 336 964 q 310 960 321 964 q 249 924 274 951 q 224 863 224 897 q 217 746 217 789 l 217 700 l 218 656 q 256 564 226 606 q 225 510 232 535 q 215 447 222 499 q 214 376 214 419 z "},"D":{"ha":647,"x_min":31,"x_max":619,"o":"m 619 540 q 581 458 582 514 l 576 239 q 547 125 575 175 q 401 11 490 42 q 326 0 369 0 q 181 47 244 0 q 114 11 154 8 l 97 13 q 31 71 43 24 q 97 192 94 114 l 104 353 q 107 450 107 417 q 83 521 107 486 q 63 544 78 528 q 103 629 103 585 l 103 761 l 101 893 q 31 1032 100 982 q 99 1097 44 1092 l 114 1099 q 186 1060 161 1099 q 311 1110 243 1106 l 336 1111 q 449 1082 390 1114 q 571 856 565 1018 l 575 742 l 581 631 q 619 540 583 576 m 433 697 l 433 722 l 432 788 l 432 854 q 375 942 432 917 q 319 951 343 951 l 281 947 q 249 899 249 931 l 247 615 q 281 543 256 576 q 256 510 263 531 q 249 468 249 489 l 246 214 q 288 149 251 164 q 328 140 306 140 q 389 164 363 140 q 426 247 426 199 q 431 292 428 263 l 432 481 q 394 551 428 522 q 431 619 429 574 l 433 697 z "},"E":{"ha":585,"x_min":26,"x_max":558,"o":"m 71 563 q 118 671 117 601 l 119 772 l 114 874 q 93 969 111 932 q 40 1036 72 1014 q 58 1073 43 1056 q 90 1092 72 1090 l 114 1093 q 185 1061 154 1096 q 310 1111 244 1117 l 344 1108 q 465 1053 414 1096 q 556 1090 499 1090 q 544 1028 544 1063 l 550 981 q 558 919 558 953 l 558 907 l 557 892 q 503 793 557 824 q 454 779 479 779 q 393 801 415 779 q 414 896 414 847 q 376 949 414 936 q 336 958 357 958 l 319 958 l 297 953 q 253 896 253 936 l 253 622 q 279 619 261 619 l 292 619 l 306 621 q 343 636 332 621 q 360 672 347 642 q 361 693 361 678 l 360 706 q 436 675 407 710 q 450 647 446 661 l 454 615 q 444 585 454 606 q 424 558 435 565 q 456 506 450 536 l 458 490 q 381 407 449 401 l 363 408 l 364 421 q 356 460 364 439 q 332 488 344 486 q 285 492 315 489 l 254 492 q 256 363 256 446 l 254 214 q 289 153 254 168 l 321 149 l 333 149 l 347 151 q 410 204 393 154 q 413 225 413 210 q 375 297 413 272 q 431 336 392 336 l 446 336 q 518 294 492 336 q 540 193 540 244 q 533 133 540 165 q 525 83 525 108 q 538 18 525 50 l 515 14 q 454 46 478 14 q 322 0 396 0 q 186 47 242 0 q 115 7 164 7 q 26 72 49 7 l 50 96 q 68 118 63 106 q 113 240 113 181 q 115 469 113 240 q 71 563 115 525 z "},"F":{"ha":592,"x_min":26,"x_max":564,"o":"m 564 1110 q 538 1032 535 1071 l 539 1011 l 553 953 q 558 931 558 944 l 561 911 q 526 821 561 858 q 439 783 492 783 q 376 801 408 783 q 414 903 414 842 q 394 954 414 936 q 343 972 374 972 l 332 974 q 263 940 290 974 l 263 624 l 319 625 q 353 646 342 625 l 363 669 l 365 693 l 364 711 l 376 713 q 468 647 449 713 l 469 631 q 438 560 472 592 q 476 492 476 535 l 472 465 q 392 408 447 404 l 369 410 l 374 431 l 368 457 q 333 489 357 481 l 297 493 l 263 494 l 263 213 q 336 53 263 119 q 267 1 315 7 l 256 0 q 185 31 213 0 q 119 3 156 0 l 99 4 q 35 68 44 19 q 108 199 106 117 l 114 369 l 114 471 q 71 558 114 529 q 108 629 103 586 l 108 703 l 106 821 l 96 926 q 26 1040 75 999 q 49 1084 32 1067 q 89 1104 67 1101 l 103 1106 q 171 1069 150 1106 q 319 1110 238 1110 q 465 1069 400 1110 q 547 1111 500 1115 l 564 1110 z "},"G":{"ha":646,"x_min":29,"x_max":617,"o":"m 617 567 q 583 513 597 544 q 568 451 568 481 l 571 42 q 504 78 528 42 q 308 0 426 0 q 129 96 190 0 q 79 240 79 172 l 79 469 q 29 572 79 539 q 83 681 89 621 l 82 697 l 82 875 q 115 998 82 939 q 201 1088 147 1057 q 307 1111 261 1114 l 331 1110 q 460 1054 413 1106 q 542 1103 492 1107 l 558 1101 q 536 1024 536 1065 q 547 962 536 1003 q 558 899 558 921 l 558 869 q 553 849 556 861 q 507 777 544 806 q 425 749 469 749 l 399 751 q 419 839 419 788 q 407 911 419 875 q 314 964 376 964 l 303 964 l 285 960 q 217 853 217 932 l 215 639 q 260 558 215 583 q 219 482 219 531 l 221 250 q 249 178 221 207 q 319 149 278 149 l 335 150 q 397 183 371 153 q 422 251 424 214 l 418 469 q 376 540 417 510 q 350 551 365 549 q 374 600 350 579 q 425 621 397 621 q 486 588 465 621 q 558 622 510 631 q 617 567 607 614 z "},"H":{"ha":714,"x_min":32,"x_max":681,"o":"m 681 72 q 658 31 672 47 q 599 7 633 7 q 542 33 564 7 q 481 6 518 6 l 461 8 q 403 69 413 15 q 435 117 419 88 q 460 189 460 147 l 461 494 l 253 492 l 249 215 q 258 163 249 196 q 325 68 276 103 q 295 18 317 36 q 249 0 274 0 q 183 32 206 0 q 119 1 158 1 l 107 3 q 35 65 47 10 q 113 219 113 133 l 114 469 q 99 525 114 501 q 65 561 85 549 q 85 576 78 567 q 114 646 114 610 l 111 918 q 89 990 111 956 q 32 1039 67 1024 q 48 1081 32 1060 q 83 1107 64 1101 l 114 1111 q 186 1082 157 1111 q 240 1106 210 1106 l 254 1104 q 302 1086 281 1104 q 328 1042 324 1068 q 264 946 279 996 q 256 901 256 922 l 254 636 l 461 636 l 453 925 l 447 950 q 396 1044 435 1007 q 403 1069 396 1058 l 410 1081 q 469 1107 439 1107 l 501 1099 q 528 1081 518 1090 q 596 1101 560 1101 l 621 1099 q 651 1083 635 1097 q 671 1047 669 1065 q 599 906 599 1000 l 597 656 q 610 606 600 635 q 651 558 625 575 q 625 536 638 550 q 603 461 603 506 l 608 179 q 619 149 614 160 q 681 72 636 100 z "},"I":{"ha":340,"x_min":15,"x_max":322,"o":"m 322 1047 q 281 1003 296 1031 q 250 896 250 957 l 250 647 q 294 556 250 585 q 256 508 274 540 q 239 453 239 476 l 239 213 q 271 110 239 160 q 313 65 286 85 q 258 6 303 22 q 225 0 246 0 q 167 31 188 4 q 99 3 135 3 q 15 57 39 3 q 97 203 97 107 l 99 460 q 58 550 99 514 q 103 626 96 578 l 104 886 q 28 1054 104 1001 q 114 1111 60 1111 l 128 1110 q 179 1081 163 1103 l 214 1101 q 244 1108 232 1108 q 283 1097 261 1108 q 322 1047 300 1081 z "},"J":{"ha":697,"x_min":32,"x_max":667,"o":"m 371 1040 q 436 1107 386 1093 l 458 1110 q 524 1081 499 1110 q 586 1111 549 1111 l 614 1106 q 651 1081 635 1101 q 667 1039 667 1060 q 601 914 601 989 l 601 903 l 603 633 q 613 592 603 610 q 639 563 624 574 q 603 478 603 528 l 603 192 q 561 88 594 131 q 363 0 494 0 l 304 6 q 251 19 285 7 q 114 183 133 63 l 97 289 l 93 386 q 32 475 85 449 q 47 519 32 497 q 88 547 63 538 l 100 549 l 114 551 q 175 525 149 551 q 235 554 200 554 l 258 551 q 308 481 308 533 q 250 385 263 439 l 244 340 l 244 318 l 246 282 l 249 251 q 301 158 249 188 q 356 144 326 144 q 447 192 417 144 q 461 242 461 214 l 461 331 l 460 403 l 457 476 q 415 551 456 524 q 451 635 451 588 l 451 892 q 371 1040 439 986 z "},"K":{"ha":726,"x_min":33,"x_max":693,"o":"m 261 117 q 310 53 286 74 q 247 6 288 10 l 233 4 q 172 29 197 4 q 115 10 147 10 l 94 13 q 33 64 50 25 q 90 142 75 97 q 100 199 99 165 l 104 308 l 103 399 l 103 489 q 65 567 97 533 q 103 636 94 593 l 103 914 q 36 1053 94 1006 q 97 1103 57 1094 l 119 1104 q 176 1088 149 1106 q 239 1111 204 1111 l 254 1110 q 321 1063 300 1099 q 269 1003 286 1036 q 246 931 246 957 q 242 696 242 883 q 374 892 314 782 q 408 958 390 921 q 414 996 414 969 q 397 1058 414 1031 q 468 1103 422 1103 q 546 1072 515 1107 q 613 1108 571 1111 l 636 1107 q 693 1047 683 1096 q 564 944 614 1026 l 375 629 q 458 558 399 575 q 449 532 449 543 l 449 514 q 460 460 449 486 l 592 142 q 679 60 615 83 q 618 3 663 15 l 597 1 q 536 25 563 -1 q 474 0 511 0 q 436 8 453 0 q 458 76 458 36 q 451 119 458 100 q 324 408 404 254 q 274 461 304 444 q 242 389 242 426 l 242 190 q 261 117 247 149 z "},"L":{"ha":658,"x_min":31,"x_max":629,"o":"m 629 247 q 619 193 629 232 q 600 106 600 147 q 621 15 600 60 l 608 14 l 596 11 q 521 47 550 11 q 364 0 449 0 q 189 58 267 0 q 149 25 175 33 l 124 21 l 97 25 q 31 89 49 46 q 113 233 114 133 l 111 347 l 111 463 q 61 568 111 528 q 114 664 114 606 l 114 897 q 94 978 114 938 q 42 1036 75 1018 q 108 1108 54 1096 l 129 1111 q 201 1076 174 1111 q 265 1108 226 1108 l 279 1107 q 343 1054 325 1103 q 261 888 261 1000 l 261 669 q 310 565 261 614 q 273 526 285 547 q 261 478 261 506 l 260 363 l 260 247 q 325 164 260 183 q 374 154 354 154 q 456 183 419 154 q 492 257 492 213 l 489 278 q 458 354 483 318 q 519 375 486 375 l 550 371 q 618 308 603 357 q 629 247 629 275 z "},"M":{"ha":797,"x_min":36,"x_max":761,"o":"m 761 1047 q 699 979 719 1017 q 678 892 678 942 l 676 767 l 676 644 q 692 596 681 617 q 719 561 704 575 q 679 474 679 525 q 677 447 679 467 q 675 411 675 426 q 675 350 675 411 l 675 228 q 750 69 675 142 q 689 3 739 17 l 668 1 q 601 31 632 -1 q 539 0 576 0 l 519 3 q 458 64 468 15 q 526 264 531 144 l 515 558 l 392 151 l 264 579 l 263 267 q 332 63 263 154 q 272 3 319 14 l 253 1 q 192 28 217 -1 q 131 3 165 3 l 104 7 q 47 74 56 24 q 107 196 106 132 l 110 326 l 110 457 q 65 549 110 513 q 118 668 118 604 l 118 732 l 115 833 l 108 926 q 36 1043 103 1000 q 106 1107 53 1097 l 124 1108 q 196 1075 165 1111 q 286 1108 240 1113 l 303 1107 l 393 746 l 488 1108 l 510 1111 q 597 1081 560 1111 q 668 1108 629 1111 l 688 1107 q 761 1047 740 1097 z "},"N":{"ha":732,"x_min":33,"x_max":699,"o":"m 699 79 q 624 8 681 24 l 603 7 q 526 42 561 4 q 446 3 490 7 l 247 578 l 247 233 q 264 135 247 176 q 317 56 283 88 q 253 4 299 13 l 236 3 q 175 26 204 0 q 114 0 150 0 l 88 4 q 33 75 33 22 q 103 214 103 125 l 103 472 q 63 549 103 524 q 99 624 99 576 l 99 903 q 49 1044 99 999 q 115 1103 64 1094 l 129 1103 q 197 1069 172 1103 q 226 1102 204 1090 q 269 1110 247 1114 l 471 494 l 472 897 q 397 1058 472 1004 q 464 1110 419 1106 l 478 1111 q 546 1082 518 1111 q 611 1108 574 1108 l 626 1107 q 694 1057 674 1097 q 613 897 613 994 l 613 657 q 669 558 613 592 q 611 461 611 531 l 611 300 l 619 189 q 699 79 625 106 z "},"O":{"ha":632,"x_min":29,"x_max":603,"o":"m 603 565 q 563 475 564 532 l 558 254 q 481 81 557 161 q 313 0 406 0 q 218 24 268 0 q 110 117 149 58 q 68 253 71 175 l 60 479 q 51 525 58 503 q 29 563 44 547 q 65 663 60 589 q 68 776 67 719 q 74 904 74 864 q 160 1055 88 999 q 319 1111 233 1111 q 426 1087 378 1111 q 508 1009 474 1063 q 547 897 542 956 l 558 772 l 561 642 q 603 565 563 603 m 415 732 l 414 779 l 410 847 q 403 886 408 874 l 386 925 q 313 963 357 963 l 289 960 q 214 847 213 924 l 217 656 q 254 560 222 604 q 215 471 215 521 l 214 364 l 214 257 q 236 194 214 222 q 292 160 258 167 l 318 157 l 344 160 q 404 235 396 181 l 410 471 q 372 558 401 519 q 402 605 393 581 q 413 653 411 629 l 415 732 z "},"P":{"ha":619,"x_min":0,"x_max":589,"o":"m 74 872 q 60 964 74 919 q 4 1042 47 1008 q 74 1100 22 1089 q 156 1063 121 1106 q 331 1110 235 1119 q 488 1031 426 1100 q 535 943 526 986 q 553 847 544 900 q 589 774 556 806 q 547 710 553 740 q 542 629 542 681 q 514 527 542 568 q 444 467 486 486 q 337 439 394 440 q 226 454 279 438 l 226 199 q 251 128 226 163 q 307 78 275 94 q 249 6 297 19 q 154 36 192 -15 q 64 8 114 -4 q 0 64 17 19 q 78 228 78 136 l 78 463 q 36 556 78 522 q 74 632 74 578 l 74 872 m 417 674 q 383 763 417 733 q 411 844 417 799 q 381 926 406 890 q 309 969 354 967 q 228 936 264 971 q 215 681 201 803 q 245 605 219 639 q 322 575 271 571 q 385 603 356 578 q 417 674 414 629 z "},"Q":{"ha":661,"x_min":31,"x_max":631,"o":"m 319 1111 q 426 1088 379 1111 q 513 1008 481 1060 q 549 918 544 956 l 557 835 q 561 772 561 794 l 563 642 q 606 565 563 596 q 564 475 564 532 q 563 419 564 454 q 561 364 561 379 l 560 254 q 535 157 560 200 q 581 136 551 136 q 628 154 610 136 q 631 128 631 146 q 585 33 631 65 q 514 10 551 10 q 456 25 486 10 q 440 42 442 36 l 397 19 q 314 0 360 0 q 229 19 269 0 q 112 115 151 56 q 69 253 72 175 l 63 479 q 31 563 61 532 q 64 642 64 594 l 65 878 q 181 1075 67 1014 q 319 1111 249 1111 m 415 744 l 415 758 l 413 847 l 404 886 l 386 925 q 314 963 358 963 l 290 960 q 219 847 219 925 q 214 751 214 814 l 214 700 l 219 642 q 256 560 224 606 q 217 471 217 532 l 217 257 q 238 195 217 225 q 292 160 260 165 l 317 156 q 360 169 342 156 l 304 256 q 347 271 324 271 q 369 267 368 268 l 404 247 q 413 419 413 331 l 413 471 q 374 558 404 522 q 414 653 414 603 l 414 704 l 415 744 z "},"R":{"ha":672,"x_min":31,"x_max":642,"o":"m 242 232 q 321 50 242 126 q 256 8 296 14 l 238 6 q 179 25 207 6 q 121 4 150 4 l 101 7 q 36 53 60 18 q 114 193 104 113 l 114 486 q 78 569 114 536 q 108 663 108 611 l 108 928 q 86 997 111 964 q 31 1046 67 1031 q 104 1101 53 1101 q 193 1061 165 1101 q 353 1111 267 1111 q 494 1068 436 1111 q 536 1019 514 1051 q 575 897 575 963 l 572 875 q 614 774 572 815 q 579 682 579 733 l 564 603 q 522 523 556 558 q 444 474 488 488 q 521 315 507 403 l 536 222 q 571 126 546 165 q 642 54 599 81 q 569 0 619 0 q 488 40 515 0 q 414 6 458 6 l 392 8 q 414 121 414 65 q 406 189 414 147 l 354 360 q 317 421 343 399 q 240 444 286 444 l 242 232 m 438 858 q 409 931 438 900 q 339 969 381 963 l 326 969 q 243 947 271 969 l 243 657 q 263 599 243 622 q 318 576 283 576 l 332 578 q 399 600 371 578 q 426 661 426 622 q 432 693 432 679 q 399 772 432 740 q 436 847 436 804 l 438 858 z "},"S":{"ha":551,"x_min":25,"x_max":526,"o":"m 526 281 q 410 42 526 125 q 281 0 351 0 q 133 51 196 0 q 43 0 97 13 q 54 92 57 47 l 51 143 l 43 186 l 36 217 q 25 264 25 239 q 44 327 25 296 q 81 360 64 358 l 114 363 q 178 349 144 365 q 164 279 164 311 q 181 197 164 238 q 240 150 206 161 l 261 147 q 331 169 297 147 q 372 263 368 206 l 374 282 q 342 403 378 335 q 182 508 286 508 l 183 522 q 136 625 183 569 q 64 721 74 699 q 31 832 35 783 q 29 874 29 849 l 29 889 l 31 908 q 81 1031 44 978 q 271 1110 153 1110 q 417 1065 349 1110 q 501 1111 443 1111 q 485 1031 483 1067 l 486 997 l 493 968 l 504 931 l 508 896 q 486 813 508 850 q 425 776 463 781 l 413 775 q 357 793 379 775 q 374 864 374 826 l 369 900 q 281 969 347 969 q 215 944 243 969 q 183 882 186 919 l 182 861 q 197 799 179 829 q 308 672 240 724 q 408 638 354 638 l 406 619 q 425 560 406 586 q 517 356 490 469 q 526 281 526 314 z "},"T":{"ha":619,"x_min":28,"x_max":592,"o":"m 592 881 q 574 794 592 835 q 514 735 553 747 q 476 728 493 728 q 432 738 453 728 q 463 833 463 782 q 429 936 463 890 q 397 947 417 953 q 379 922 379 942 l 379 640 q 415 554 379 586 q 371 463 371 515 l 372 207 q 450 68 382 119 q 385 3 436 10 l 364 0 q 299 31 325 0 q 238 4 274 4 l 215 7 q 156 69 167 21 q 231 236 231 144 l 231 490 q 196 556 231 533 q 236 640 236 590 l 236 929 l 228 947 q 208 958 219 958 q 174 942 186 956 q 160 905 161 928 q 158 861 158 882 q 175 758 158 807 q 136 750 154 750 q 77 767 106 750 q 38 813 49 785 q 28 854 28 833 q 29 868 29 863 q 43 983 29 924 q 53 1036 53 1008 q 38 1107 53 1074 l 49 1108 q 128 1078 90 1108 q 217 1111 168 1111 q 297 1086 261 1111 q 381 1108 338 1108 q 492 1067 443 1108 q 564 1100 524 1100 l 582 1097 l 572 1056 l 571 1019 q 581 949 569 994 q 592 881 592 903 z "},"U":{"ha":664,"x_min":31,"x_max":635,"o":"m 635 1047 q 572 925 571 1001 l 578 660 q 619 561 579 597 q 583 469 583 515 l 582 231 q 474 31 581 96 q 340 0 411 0 q 122 115 182 0 q 92 233 93 171 l 89 474 q 46 554 89 526 q 84 601 74 576 q 94 658 94 625 l 94 925 q 31 1044 94 1004 q 53 1085 38 1068 q 85 1106 69 1103 l 113 1110 q 174 1085 149 1110 q 229 1107 196 1107 l 253 1103 q 306 1040 299 1086 q 243 936 254 1001 q 235 860 239 908 q 232 772 231 803 l 238 650 q 247 603 239 632 q 275 558 263 574 q 233 475 233 532 q 235 414 233 454 q 236 353 236 374 l 236 231 q 301 149 236 156 l 326 146 l 344 144 l 382 147 q 440 232 442 164 l 438 475 q 396 557 438 525 q 432 632 432 589 q 431 647 431 642 q 428 801 431 756 l 419 938 q 360 1040 415 1007 q 414 1104 365 1088 l 438 1108 q 494 1086 472 1108 q 553 1111 524 1111 l 576 1108 q 635 1047 625 1093 z "},"V":{"ha":769,"x_min":35,"x_max":735,"o":"m 735 1042 q 653 933 668 1006 l 592 650 l 592 631 q 614 558 592 592 q 553 486 563 531 l 474 110 q 471 78 471 101 q 483 8 471 40 q 442 1 465 1 q 364 33 396 1 q 296 0 335 0 l 285 0 l 264 6 q 274 57 274 33 l 269 94 l 199 479 q 147 553 190 528 q 172 619 175 588 l 171 636 q 117 936 160 772 q 35 1033 97 1006 q 100 1108 46 1092 l 119 1110 q 192 1075 163 1113 q 256 1107 215 1107 l 275 1104 q 335 1039 329 1090 q 288 946 283 1001 l 289 928 l 375 378 l 476 944 q 433 1042 476 1007 q 497 1108 446 1093 l 521 1111 q 586 1083 558 1111 q 647 1108 611 1108 l 672 1104 q 714 1081 700 1094 q 735 1042 728 1067 z "},"W":{"ha":907,"x_min":24,"x_max":846,"o":"m 846 1058 q 764 922 785 1004 q 718 654 718 735 l 717 643 q 749 567 717 601 q 700 524 717 550 q 683 465 683 497 l 638 164 q 635 124 635 143 q 660 14 636 64 q 571 42 611 14 q 531 17 554 25 q 479 8 507 8 q 488 79 490 47 l 485 114 l 481 138 l 422 365 l 369 160 q 364 106 364 138 q 386 14 364 65 l 356 7 q 285 40 313 7 q 208 7 249 4 l 189 8 q 211 128 211 63 l 211 157 q 194 321 211 219 l 165 497 q 114 568 157 547 q 138 667 138 608 q 122 806 138 736 l 92 943 q 24 1042 76 1011 q 60 1101 31 1088 q 74 1107 71 1107 l 101 1113 q 164 1085 142 1113 q 224 1108 192 1108 l 247 1106 q 300 1074 281 1094 q 308 1057 304 1068 q 253 942 249 1010 l 254 921 l 294 597 l 425 1004 l 549 579 l 614 954 q 569 1061 614 1017 q 628 1113 585 1104 l 643 1114 q 703 1089 679 1114 q 760 1111 731 1111 l 782 1108 q 846 1058 828 1094 z "},"X":{"ha":756,"x_min":35,"x_max":721,"o":"m 721 76 q 704 31 721 53 q 664 4 688 10 l 638 0 q 575 28 600 0 q 514 3 550 3 l 492 7 q 432 69 442 24 q 465 136 465 94 q 457 174 463 161 l 379 353 l 308 175 l 303 146 q 336 65 303 97 q 313 26 328 40 q 275 4 299 11 l 256 3 q 192 28 219 0 q 133 4 165 4 l 107 8 q 49 76 57 28 q 150 188 111 117 l 275 478 l 275 492 q 268 522 275 508 q 232 551 253 543 q 258 585 253 563 l 263 603 l 258 628 l 114 957 q 35 1033 89 1014 q 97 1107 46 1092 l 121 1110 q 188 1079 161 1110 q 244 1103 211 1103 l 264 1100 q 324 1047 306 1094 q 279 965 279 1019 q 286 931 279 946 l 375 739 l 464 953 q 469 981 469 967 l 464 1008 q 428 1050 449 1039 q 489 1108 442 1100 l 506 1111 q 569 1081 543 1111 q 631 1106 594 1106 l 658 1100 q 695 1076 678 1096 q 714 1038 713 1057 q 608 918 636 988 l 493 628 l 490 606 q 526 542 490 561 q 499 514 504 529 l 494 490 l 500 464 l 626 176 q 721 76 656 108 z "},"Y":{"ha":799,"x_min":36,"x_max":763,"o":"m 763 1031 q 669 926 700 997 l 547 646 q 536 603 536 621 q 549 557 536 579 q 481 469 481 536 l 478 197 q 551 72 476 119 q 485 3 539 17 l 464 0 q 393 32 421 0 q 331 4 365 4 l 306 8 q 247 78 253 25 q 331 219 331 135 l 331 378 l 325 471 q 256 565 321 536 q 267 615 267 586 q 256 665 267 635 l 174 889 q 36 1031 138 989 q 96 1103 46 1092 q 108 1106 100 1106 l 121 1108 q 186 1078 160 1108 q 257 1111 214 1111 l 279 1108 q 347 1039 335 1094 q 306 958 306 1010 q 314 919 308 931 l 400 676 l 503 922 l 507 953 q 469 1039 507 1006 q 536 1103 485 1094 l 553 1106 q 621 1075 593 1106 q 679 1097 643 1097 l 706 1093 q 745 1069 732 1085 q 763 1031 758 1054 z "},"Z":{"ha":619,"x_min":28,"x_max":592,"o":"m 592 283 l 589 264 q 575 181 589 225 q 564 151 572 171 l 558 125 l 558 103 q 575 10 558 51 l 563 8 q 474 47 510 8 q 314 0 400 0 q 151 49 224 0 q 69 7 122 7 q 28 15 43 10 l 194 508 q 167 572 194 544 q 246 633 222 585 l 336 882 q 342 904 342 892 l 342 915 l 338 926 q 310 955 324 951 q 281 958 297 958 q 194 907 224 958 q 178 825 178 867 q 192 749 178 790 l 160 744 q 90 767 121 744 q 51 829 60 790 q 49 863 49 836 q 68 953 49 911 q 75 1006 75 974 q 51 1100 75 1053 q 74 1103 60 1103 q 149 1064 122 1103 q 263 1108 207 1101 q 306 1111 283 1111 q 457 1067 389 1111 q 542 1092 492 1092 l 564 1092 l 406 633 q 400 606 400 622 q 417 557 400 576 q 344 475 364 526 l 247 214 l 243 194 l 247 175 q 319 142 261 142 q 369 151 342 142 q 454 232 432 174 q 460 278 460 256 q 433 376 460 333 q 483 390 456 390 q 547 369 511 390 q 592 283 592 336 z "},"^":{"ha":376,"x_min":19,"x_max":358,"o":"m 358 661 q 346 618 346 636 l 350 590 l 354 551 l 354 535 q 342 494 351 510 q 315 470 333 479 q 285 461 297 461 q 240 479 258 461 q 254 538 254 508 q 236 564 254 557 l 214 568 l 206 568 l 190 565 l 178 556 q 171 538 171 542 l 171 379 l 196 379 q 217 392 210 381 l 221 404 l 222 415 l 221 431 q 278 412 264 431 q 292 369 292 393 q 286 347 292 356 l 278 335 q 293 306 289 324 l 294 294 q 286 265 292 274 q 240 238 274 238 l 224 238 l 224 253 l 219 271 q 206 286 217 286 l 183 288 l 171 288 l 167 221 l 167 132 q 188 99 167 106 l 206 96 l 213 96 l 219 97 q 239 107 233 100 q 251 125 250 115 l 253 135 q 229 176 253 160 q 271 208 243 208 l 281 208 q 329 181 313 208 q 343 115 343 143 l 339 79 q 335 50 335 69 q 346 7 335 31 l 322 1 q 283 18 303 1 q 206 -7 250 -7 q 125 18 158 -7 q 81 -3 113 -3 q 19 46 36 3 l 38 63 l 46 74 q 71 147 71 107 q 74 193 74 168 l 74 279 q 65 314 74 289 q 46 338 63 322 q 76 403 76 364 l 76 433 l 78 456 l 78 464 l 74 524 q 29 619 69 586 q 65 663 35 658 l 81 663 q 124 646 104 663 q 199 674 156 676 l 219 672 q 290 642 260 664 q 358 661 311 661 z "},"a":{"ha":760,"x_min":35,"x_max":729,"o":"m 729 57 q 694 7 729 24 q 651 0 675 0 q 576 24 607 0 q 518 3 554 3 l 493 6 q 439 46 450 11 q 486 149 490 94 l 485 169 l 479 190 l 464 231 l 289 229 l 278 174 l 274 157 l 274 144 q 325 49 274 86 q 249 3 318 3 q 181 28 206 3 q 119 1 154 4 l 108 0 q 35 40 53 0 q 108 117 85 71 q 126 163 114 124 q 131 186 131 175 l 151 285 l 156 336 l 158 357 q 136 415 158 390 q 181 472 174 436 l 226 711 q 203 768 229 739 q 186 783 196 776 q 269 833 211 828 q 361 804 329 833 q 443 832 399 833 l 468 831 q 542 799 511 828 l 519 772 q 496 715 496 744 l 497 703 l 546 496 q 611 422 557 449 q 583 356 583 394 q 590 319 583 343 l 642 153 q 729 57 661 88 m 438 340 l 361 649 l 307 340 l 438 340 z "},"b":{"ha":664,"x_min":31,"x_max":633,"o":"m 633 240 q 597 194 597 222 q 576 108 597 147 q 502 38 554 68 q 393 3 450 8 l 375 0 l 346 0 q 186 40 256 0 q 104 7 161 7 q 32 50 49 13 q 103 174 103 97 l 104 340 q 63 419 104 389 q 103 499 103 447 l 103 611 l 99 690 q 31 781 89 744 q 103 826 53 815 l 122 828 q 153 824 138 828 q 186 794 178 811 q 343 833 257 833 q 406 828 378 833 q 567 751 508 815 q 596 661 596 706 q 633 614 604 631 q 597 560 594 593 l 599 544 l 597 526 l 593 508 q 519 421 574 454 q 586 351 569 393 l 592 325 l 594 294 q 633 240 603 260 m 450 654 l 444 676 q 369 725 422 715 q 343 728 358 728 q 260 683 282 728 q 249 625 249 654 l 247 474 l 299 472 l 322 472 l 364 474 q 419 497 389 478 q 447 550 450 524 l 446 564 q 417 607 440 589 q 450 654 450 626 m 457 190 q 415 244 457 224 q 450 303 450 269 l 450 307 l 449 314 q 400 361 442 351 q 292 372 350 372 l 246 369 l 243 192 l 246 161 l 253 136 q 328 111 286 114 q 421 136 383 111 q 457 190 457 156 z "},"c":{"ha":603,"x_min":28,"x_max":576,"o":"m 576 832 q 557 778 554 801 l 560 753 l 567 667 q 518 576 571 615 q 460 560 496 560 q 411 571 433 560 q 424 624 424 599 q 410 682 424 657 q 351 722 392 722 l 336 724 q 310 719 321 724 q 253 697 278 714 q 224 647 224 676 q 217 560 217 592 l 217 525 l 218 492 q 256 424 226 454 q 215 336 211 381 l 217 318 q 214 282 214 299 l 214 271 q 231 161 214 214 q 318 111 256 117 l 332 111 q 418 163 403 111 l 422 178 l 422 201 q 410 269 422 239 q 454 274 433 275 l 475 274 l 503 269 q 561 204 563 260 l 560 163 l 556 124 q 553 104 553 115 l 553 65 q 556 44 553 53 l 568 7 q 474 32 514 7 q 331 0 407 0 q 104 99 165 0 q 81 182 81 135 q 69 349 81 260 q 28 424 69 389 q 72 504 72 457 l 72 550 l 75 619 l 81 686 q 322 828 125 828 q 474 799 404 828 q 511 825 490 817 q 563 833 532 833 l 576 832 z "},"d":{"ha":647,"x_min":31,"x_max":619,"o":"m 619 406 q 581 344 582 386 l 576 179 q 547 94 575 132 q 401 8 490 32 q 326 0 369 0 q 181 36 244 0 q 114 8 154 6 l 97 10 q 31 53 43 18 q 97 144 94 86 l 104 265 q 104 301 106 278 q 103 338 103 329 q 79 390 103 364 q 58 408 74 396 q 99 472 97 438 l 103 571 l 101 669 q 31 774 100 738 q 99 824 44 819 l 114 824 q 186 794 161 824 q 311 832 243 829 l 336 833 q 449 811 390 836 q 571 642 565 764 l 575 557 l 581 474 q 619 406 583 432 m 433 524 l 433 542 l 432 590 l 432 640 q 375 707 432 688 q 319 714 343 714 l 281 711 q 243 674 243 696 l 243 461 q 276 407 251 432 q 251 383 258 399 q 244 351 244 367 l 244 257 l 246 161 q 328 106 254 106 q 389 124 363 106 q 426 186 426 149 q 431 219 428 197 l 432 253 l 432 361 q 394 414 428 392 q 431 465 429 431 l 433 524 z "},"e":{"ha":585,"x_min":26,"x_max":558,"o":"m 64 422 q 114 503 114 453 l 114 656 q 93 728 111 681 q 40 778 72 760 q 90 819 46 817 l 114 819 q 185 796 154 822 q 310 833 244 838 l 344 832 q 465 790 414 822 q 556 818 499 818 q 544 771 544 797 l 550 736 q 558 690 558 714 l 558 681 l 557 669 q 503 594 557 618 q 454 585 479 585 q 393 601 415 585 q 414 672 414 636 q 376 711 414 701 q 336 719 357 719 l 319 719 l 297 715 q 253 672 253 701 l 253 467 q 279 465 261 465 l 292 465 l 306 465 q 342 475 331 465 q 360 504 347 481 q 361 519 361 508 l 360 529 q 436 507 407 532 q 450 486 446 496 l 454 461 q 444 439 454 454 q 424 419 435 424 q 456 379 450 401 l 458 368 q 381 306 449 301 l 363 307 l 364 315 q 354 348 364 331 q 332 365 344 365 q 285 369 315 367 l 247 369 q 246 276 247 367 l 244 165 q 289 115 244 129 l 321 111 l 333 111 l 347 114 q 410 153 393 115 q 413 169 413 157 q 375 224 413 204 q 431 253 392 253 l 446 253 q 518 221 492 253 q 540 144 540 183 q 533 102 540 124 q 525 63 525 81 q 538 14 525 38 l 515 11 q 454 35 478 11 q 322 0 396 0 q 186 36 242 0 q 115 6 164 6 q 26 54 49 6 l 50 72 q 68 89 63 79 q 108 183 108 131 q 108 353 108 249 q 64 422 108 393 z "},"f":{"ha":592,"x_min":26,"x_max":564,"o":"m 564 832 q 538 774 535 804 l 539 758 l 553 715 q 558 699 558 708 l 561 683 q 523 613 561 639 q 439 588 485 588 q 376 601 408 588 q 414 678 414 631 q 394 716 414 703 q 343 729 374 729 l 332 731 q 263 706 290 731 l 263 468 l 319 469 q 353 485 342 469 l 363 503 l 365 519 l 364 533 l 376 535 q 468 486 449 535 l 469 474 q 438 419 472 444 q 476 369 476 401 l 472 349 q 392 307 447 304 l 369 307 l 374 324 l 368 343 q 333 367 357 360 l 297 369 l 263 371 l 263 160 q 336 40 263 89 q 267 1 315 6 l 256 0 q 185 24 213 0 q 119 3 156 0 l 99 3 q 35 51 44 14 q 108 149 106 88 l 114 278 l 114 353 q 71 419 114 397 q 108 472 103 439 l 108 528 l 106 615 l 96 694 q 26 781 75 749 q 47 811 33 800 q 89 828 67 826 l 103 829 q 171 803 150 829 q 319 832 238 832 q 465 803 400 832 q 547 833 500 836 l 564 832 z "},"g":{"ha":646,"x_min":29,"x_max":617,"o":"m 617 425 q 583 384 597 408 q 568 339 568 360 l 571 32 q 504 58 528 32 q 308 0 426 0 q 129 71 190 0 q 79 181 79 129 l 79 353 q 29 429 79 404 q 83 511 89 465 l 82 524 l 82 657 q 117 751 82 708 q 201 815 151 794 q 307 833 261 835 l 331 832 q 460 790 413 829 q 542 828 492 831 l 558 826 q 536 768 536 799 q 547 724 536 751 q 558 674 558 696 l 558 653 q 553 636 556 646 q 501 579 543 601 q 425 561 465 561 l 399 564 q 419 629 419 590 q 407 683 419 656 q 314 724 376 724 l 303 724 l 285 719 q 217 640 217 699 l 215 479 q 260 419 215 438 q 219 361 219 397 l 221 188 q 254 131 221 151 q 319 111 282 111 l 335 113 q 395 136 367 115 q 422 189 424 157 l 418 353 q 376 406 417 382 q 350 414 365 411 q 376 453 350 436 q 425 465 400 465 q 486 440 465 465 q 558 467 510 474 q 617 425 607 460 z "},"h":{"ha":714,"x_min":32,"x_max":681,"o":"m 528 811 q 596 826 560 826 l 621 824 q 651 813 635 822 q 671 786 669 799 q 599 679 599 750 l 597 492 q 610 454 600 476 q 651 419 625 432 q 625 403 638 413 q 603 346 603 379 l 604 157 l 608 135 q 619 111 614 119 q 681 54 636 75 q 658 24 672 36 q 599 6 633 6 q 542 25 564 6 q 481 4 518 4 l 461 7 q 403 53 413 11 q 435 88 419 65 q 460 142 460 110 l 461 371 l 250 371 l 249 161 q 258 122 249 147 q 325 51 276 76 q 295 13 317 26 q 249 0 274 0 q 183 24 206 0 q 119 1 158 1 l 107 3 q 35 49 47 7 q 113 165 113 101 l 113 353 q 98 394 113 376 q 64 421 83 411 q 82 432 75 425 q 111 485 111 457 l 111 689 q 87 743 111 718 q 32 779 63 768 q 49 811 32 796 q 83 831 65 826 l 114 833 q 186 811 157 833 q 240 829 210 829 l 254 828 q 301 815 278 828 q 328 782 324 803 q 264 710 279 747 q 254 676 254 689 l 254 478 l 460 478 l 460 674 q 448 737 460 714 q 396 783 436 760 q 474 826 426 826 q 528 811 500 826 z "},"i":{"ha":340,"x_min":15,"x_max":322,"o":"m 322 786 q 281 753 296 774 q 246 672 246 714 l 247 486 q 294 417 247 440 q 242 340 242 386 l 242 160 q 274 82 242 119 q 315 49 289 64 q 261 4 306 17 q 228 0 249 0 q 167 24 188 3 q 99 3 135 3 q 15 43 39 3 q 97 153 97 81 l 97 344 q 58 413 97 386 q 103 469 96 433 l 104 665 q 28 790 104 751 q 114 833 60 833 l 128 832 q 179 811 163 826 l 214 826 q 244 832 232 832 q 283 824 261 832 q 322 786 300 810 z "},"j":{"ha":697,"x_min":32,"x_max":667,"o":"m 371 781 q 436 831 386 819 l 458 832 q 524 811 499 832 q 586 833 549 833 l 614 829 q 649 812 632 826 q 667 779 667 797 q 601 686 601 742 l 601 678 l 603 475 q 613 444 603 457 q 639 422 624 431 q 603 358 603 396 l 603 144 q 472 15 585 47 q 363 0 417 0 l 304 4 q 251 15 285 6 q 114 138 133 47 l 97 217 l 93 290 q 32 357 85 336 q 47 390 32 374 q 88 411 63 403 l 100 411 l 114 414 q 175 394 149 414 q 235 415 200 415 l 258 414 q 308 361 308 400 q 250 289 263 329 l 244 256 l 244 239 l 246 211 l 249 189 q 301 119 249 140 q 356 108 326 108 q 447 143 417 108 q 461 182 461 161 l 461 249 l 460 303 l 457 357 q 415 414 456 393 q 451 476 451 440 l 451 669 q 371 781 439 739 z "},"k":{"ha":726,"x_min":33,"x_max":693,"o":"m 693 786 q 564 708 614 771 l 375 472 q 458 419 399 432 q 449 399 449 407 l 449 386 q 460 344 449 365 l 592 107 q 679 44 615 63 q 618 3 663 11 l 597 1 q 536 19 563 -1 q 474 0 511 0 q 436 7 453 0 q 458 57 458 26 q 451 90 458 75 q 324 307 404 192 q 274 346 304 333 q 242 292 242 319 l 242 254 l 243 226 l 243 144 q 261 88 243 118 q 310 40 286 56 q 247 4 288 7 l 233 3 q 172 22 197 3 q 115 7 147 7 l 94 10 q 33 49 50 19 q 90 107 75 74 q 100 149 99 125 l 104 232 l 103 299 l 103 367 q 65 425 97 400 q 103 478 94 444 l 103 515 l 104 543 l 104 589 l 103 643 l 99 689 q 36 790 93 754 q 97 828 57 821 l 119 828 q 176 815 149 829 q 239 833 204 833 l 254 832 q 321 797 300 824 q 251 699 251 757 q 242 522 242 615 q 374 669 314 586 q 408 719 389 690 q 414 747 414 726 q 397 794 414 772 q 468 828 422 828 q 546 804 515 831 q 613 832 571 833 l 636 831 q 693 786 683 822 z "},"l":{"ha":658,"x_min":31,"x_max":629,"o":"m 629 186 q 619 144 629 174 q 600 79 600 111 q 621 11 600 44 l 608 11 l 596 8 q 521 36 550 8 q 364 0 449 0 q 189 44 267 0 q 149 19 175 25 l 124 15 l 97 19 q 31 67 49 35 q 113 175 114 100 l 111 261 l 111 347 q 61 426 111 396 q 114 499 114 454 l 114 674 q 42 778 114 746 q 108 832 54 822 l 129 833 q 201 807 174 833 q 265 832 226 831 l 279 831 q 343 790 325 826 q 261 665 261 750 l 261 503 q 310 424 261 460 q 273 394 285 410 q 261 358 261 379 l 260 272 l 260 186 q 326 122 260 138 q 374 115 356 115 q 449 133 414 115 q 492 193 492 157 l 489 208 q 458 265 483 239 q 519 282 486 282 l 550 278 q 618 232 603 268 q 629 186 629 206 z "},"m":{"ha":797,"x_min":36,"x_max":761,"o":"m 761 786 q 678 669 679 739 l 676 575 l 676 483 q 690 449 681 463 q 719 421 704 431 q 679 356 679 393 q 678 308 679 339 q 676 263 676 276 l 675 171 q 750 53 674 107 q 689 3 739 13 l 668 1 q 601 24 632 -1 q 539 0 576 0 l 519 3 q 458 49 468 11 q 526 199 531 108 l 515 419 l 392 114 l 264 435 l 263 200 q 281 118 263 158 q 332 47 300 78 q 272 3 319 10 l 253 1 q 192 21 217 -1 q 131 3 165 3 l 104 6 q 47 56 56 18 q 107 147 107 100 l 110 343 q 65 411 110 383 q 118 501 118 453 l 118 549 l 115 625 l 108 694 q 36 782 103 750 q 106 831 53 822 l 124 832 q 196 807 165 833 q 286 832 240 835 l 303 831 l 393 560 l 488 832 l 510 833 q 597 811 560 833 q 668 832 629 833 l 688 831 q 761 786 740 822 z "},"n":{"ha":732,"x_min":33,"x_max":699,"o":"m 699 60 q 624 7 681 18 l 603 6 q 526 32 561 3 q 446 3 490 6 l 247 433 l 247 175 q 264 101 247 132 q 317 42 283 65 q 253 3 299 10 l 236 3 q 175 19 204 0 q 114 0 150 0 l 88 3 q 33 57 33 17 q 103 161 103 93 l 103 354 q 63 411 103 393 q 99 468 99 432 l 99 678 q 39 783 99 743 q 106 828 54 821 l 119 828 q 197 803 172 828 q 269 832 214 840 l 464 371 l 472 674 q 397 794 475 751 q 464 832 419 829 l 478 833 q 546 811 518 833 q 611 832 574 831 l 626 831 q 694 793 674 822 q 610 674 610 744 l 608 493 q 667 419 608 444 q 608 346 608 397 l 608 319 l 614 142 q 644 90 615 118 q 699 60 668 68 z "},"o":{"ha":632,"x_min":29,"x_max":603,"o":"m 603 424 q 563 357 564 399 l 558 190 q 504 81 557 132 q 397 15 458 36 q 313 0 356 0 q 219 18 268 0 q 110 88 149 44 q 68 190 71 131 l 60 360 q 51 394 58 378 q 29 422 44 410 q 64 494 58 442 q 68 582 67 539 q 74 678 74 647 q 210 815 93 775 q 319 833 264 833 q 426 815 378 833 q 508 757 474 797 q 547 674 542 717 l 558 579 l 561 482 q 603 424 563 451 m 415 549 l 414 585 l 410 636 q 403 665 408 656 l 386 694 q 313 722 357 722 l 289 719 q 214 636 213 693 l 217 492 q 254 419 222 453 q 215 353 215 392 l 214 274 l 214 193 q 238 144 214 164 q 292 119 261 125 l 318 118 l 344 119 q 404 176 396 135 l 410 353 q 372 419 401 389 q 402 453 393 435 q 413 490 411 472 l 415 549 z "},"p":{"ha":621,"x_min":0,"x_max":592,"o":"m 76 657 q 61 725 76 692 q 4 782 46 758 q 75 825 21 819 q 157 799 125 832 q 331 833 236 839 q 490 772 426 826 q 538 710 529 740 q 554 638 547 679 q 592 582 557 608 q 549 535 554 556 q 544 474 544 514 q 430 333 544 364 q 231 340 315 301 l 231 150 q 253 97 231 124 q 308 57 276 69 q 251 4 296 14 q 154 25 194 -10 q 63 7 114 -1 q 0 46 18 14 q 81 172 81 101 l 81 346 q 35 418 81 396 q 76 478 76 436 l 76 657 m 418 508 q 390 571 419 550 q 414 636 418 601 q 386 697 410 671 q 310 728 353 726 q 233 703 267 731 q 218 514 204 603 q 248 454 222 481 q 321 432 274 428 q 385 454 354 433 q 418 508 415 475 z "},"q":{"ha":661,"x_min":31,"x_max":631,"o":"m 631 96 q 585 25 631 49 q 514 7 551 7 q 456 19 486 7 q 440 32 442 26 l 397 15 q 314 0 360 0 q 229 15 269 0 q 112 87 151 42 q 69 190 72 132 l 63 360 q 31 422 61 399 q 64 482 63 444 l 68 579 l 71 678 q 214 815 96 775 q 319 833 268 833 q 428 815 379 833 q 509 757 476 797 q 546 688 542 717 l 554 625 q 558 579 557 601 l 563 482 q 606 424 564 446 q 564 357 564 399 q 563 315 564 342 q 561 274 561 285 l 560 190 q 535 118 560 150 q 581 103 551 103 q 628 115 610 103 q 631 96 631 110 m 415 558 l 415 569 l 413 636 l 404 665 l 386 694 q 314 722 358 722 l 290 719 q 219 636 219 693 q 214 564 214 611 l 214 525 l 219 482 q 256 419 224 454 q 217 353 217 399 l 217 193 q 238 146 217 168 q 292 119 260 124 l 317 117 q 360 128 342 117 l 304 192 q 347 203 324 203 q 369 200 367 201 l 404 186 q 413 315 413 249 l 413 353 q 374 419 404 392 q 414 490 414 451 l 414 528 l 415 558 z "},"r":{"ha":672,"x_min":31,"x_max":642,"o":"m 242 174 q 321 38 242 94 q 256 7 296 11 l 238 4 q 179 19 207 4 q 121 3 150 3 l 101 6 q 36 40 60 14 q 114 144 104 85 l 114 365 q 78 428 114 403 q 108 497 108 458 l 108 696 q 86 749 111 722 q 31 785 67 772 q 104 826 53 826 q 193 796 165 826 q 353 833 267 833 q 494 800 436 833 q 551 746 528 782 q 575 674 575 710 l 572 657 q 614 581 572 611 q 579 511 579 550 l 564 453 q 444 356 544 379 q 521 236 507 303 l 536 167 q 571 94 546 124 q 642 40 599 60 q 569 0 619 0 q 488 31 515 0 q 414 4 458 4 l 392 7 q 414 90 414 49 q 406 142 414 110 l 354 269 q 317 315 343 299 q 240 333 286 333 l 242 174 m 438 644 q 404 703 438 679 q 339 728 376 722 l 326 728 q 243 711 271 728 l 243 493 q 318 432 243 432 l 332 433 q 393 447 367 433 q 426 496 426 464 q 432 519 432 510 q 399 579 432 556 q 436 636 436 603 l 438 644 z "},"s":{"ha":551,"x_min":25,"x_max":526,"o":"m 526 211 q 410 31 526 93 q 281 0 351 0 q 133 39 196 0 q 43 0 97 10 q 54 69 57 36 l 51 107 l 43 140 l 36 163 q 25 199 25 179 q 44 245 25 222 q 81 269 64 268 l 114 272 q 178 261 144 274 q 164 210 164 233 q 181 149 164 178 q 240 113 206 121 l 261 111 q 331 128 297 111 q 372 197 368 154 l 374 211 q 342 303 378 251 q 182 382 286 382 l 183 392 q 136 469 183 426 q 64 540 74 525 q 31 624 35 588 q 29 656 29 636 l 29 667 l 31 682 q 81 774 44 733 q 271 832 153 832 q 417 799 349 832 q 501 833 443 833 q 485 774 483 800 l 486 749 l 493 726 l 504 699 l 508 672 q 485 612 508 638 q 425 582 463 586 l 413 582 q 357 594 379 582 q 374 649 374 619 l 369 675 q 281 728 347 728 q 218 711 246 728 q 183 661 186 693 l 182 646 q 197 599 179 622 q 308 504 240 543 q 408 478 354 478 l 406 465 q 425 419 406 440 q 517 267 490 353 q 526 211 526 236 z "},"t":{"ha":619,"x_min":22,"x_max":592,"o":"m 592 661 q 571 591 592 622 q 514 551 550 560 q 476 546 493 546 q 432 553 453 546 q 463 625 463 586 q 429 703 463 668 q 397 711 417 715 q 379 692 379 707 l 379 481 q 415 415 379 439 q 372 347 372 388 l 372 156 q 450 51 382 89 q 385 3 436 7 l 364 0 q 296 24 322 0 q 235 3 271 3 l 213 6 q 153 53 164 15 q 228 178 228 108 l 228 368 q 190 417 228 399 q 231 481 231 443 l 231 697 l 222 711 q 203 719 214 718 q 168 706 181 717 q 154 678 156 696 q 153 646 153 661 q 169 569 153 606 q 131 563 149 563 q 32 608 57 563 q 22 640 22 625 q 24 651 24 647 q 38 738 24 693 q 47 778 47 757 q 32 831 47 806 l 43 832 q 122 808 85 832 q 211 833 163 833 q 297 815 261 833 q 381 832 338 832 q 492 800 443 832 q 564 825 524 825 l 582 824 l 572 792 l 571 765 q 581 711 569 744 q 592 661 592 678 z "},"u":{"ha":664,"x_min":31,"x_max":635,"o":"m 635 786 q 572 694 571 751 l 578 494 q 619 421 579 449 q 583 353 583 386 l 582 174 q 538 67 582 114 q 474 24 513 40 q 340 0 411 0 q 122 86 182 0 q 92 175 93 128 l 89 356 q 46 415 89 394 q 84 451 74 432 q 94 494 94 469 l 94 694 q 31 783 94 753 q 53 815 38 801 q 85 829 69 828 l 113 832 q 174 814 149 832 q 229 831 196 831 l 253 828 q 306 781 299 815 q 243 703 254 751 q 235 644 239 682 q 232 579 231 601 l 238 488 q 247 453 239 475 q 275 419 263 431 q 233 357 233 399 q 235 310 233 340 q 236 265 236 281 l 236 174 q 301 111 236 117 l 326 110 l 344 108 l 382 111 q 440 174 442 124 l 438 357 q 396 418 438 394 q 432 474 432 442 q 431 486 431 481 q 428 601 431 567 l 419 703 q 360 781 415 754 q 414 828 365 815 l 438 832 q 494 815 472 832 q 553 833 524 833 l 576 832 q 635 786 625 819 z "},"v":{"ha":769,"x_min":35,"x_max":735,"o":"m 735 782 q 653 700 668 754 l 592 488 l 592 472 q 614 419 592 443 q 553 365 563 399 l 474 82 q 471 58 471 76 q 483 7 471 31 q 442 1 465 1 q 364 25 396 1 q 296 0 335 0 l 285 0 l 264 4 q 274 43 274 25 l 269 71 l 199 360 q 147 415 190 396 q 172 465 175 442 l 171 478 q 117 701 160 579 q 35 775 97 754 q 100 832 46 819 l 119 832 q 192 807 163 835 q 256 831 215 831 l 275 828 q 335 779 329 818 q 288 710 283 751 l 289 696 l 375 283 l 476 708 q 433 782 476 756 q 497 832 446 819 l 521 833 q 586 813 558 833 q 647 832 611 832 l 672 828 q 714 810 700 821 q 735 782 728 800 z "},"w":{"ha":900,"x_min":42,"x_max":864,"o":"m 864 782 q 781 682 810 749 q 743 553 764 644 q 729 482 735 518 l 728 474 q 758 415 728 439 q 708 385 726 403 q 692 340 692 363 l 640 115 l 636 85 q 660 3 636 43 q 571 24 611 3 q 479 0 539 0 q 489 53 492 32 l 486 79 l 483 97 l 429 269 l 372 115 q 365 74 365 96 q 386 6 365 43 q 356 1 372 1 q 285 26 313 1 q 208 3 250 3 l 189 4 q 214 93 214 43 l 214 115 q 200 239 214 169 l 174 371 q 124 425 167 408 q 149 499 149 456 q 136 603 149 556 l 108 707 q 42 782 94 757 q 79 825 49 814 q 93 829 90 829 l 121 833 q 183 811 160 833 q 243 828 210 828 l 267 826 q 326 789 315 813 q 269 703 265 753 l 271 688 l 304 444 l 443 749 l 558 428 l 631 707 q 588 789 631 754 q 647 826 604 819 l 663 828 q 722 807 699 828 q 779 824 750 824 l 801 821 q 864 782 847 810 z "},"x":{"ha":756,"x_min":35,"x_max":721,"o":"m 721 57 q 664 3 721 14 l 638 0 q 575 21 600 0 q 514 3 550 3 l 492 6 q 432 53 442 18 q 465 103 465 71 q 457 131 463 121 l 379 265 l 308 132 l 303 110 q 336 49 303 72 q 313 19 328 31 q 275 3 299 8 l 256 3 q 192 21 219 0 q 133 3 165 3 l 107 7 q 49 57 57 21 q 150 140 111 88 l 275 358 l 275 369 q 268 392 275 381 q 232 414 253 407 q 258 439 253 421 l 263 453 l 258 471 l 114 718 q 35 775 89 760 q 97 831 46 818 l 121 832 q 188 810 161 832 q 244 828 211 826 l 264 825 q 324 786 306 821 q 279 724 279 764 q 286 699 279 710 l 375 554 l 464 715 q 469 736 469 725 l 464 757 q 428 788 449 779 q 489 832 442 825 l 506 833 q 569 811 543 833 q 631 829 594 829 l 658 825 q 694 808 676 822 q 714 778 713 794 q 608 689 636 742 l 493 471 l 490 454 q 526 407 490 421 q 499 386 504 397 l 494 368 l 500 349 l 626 132 q 721 57 656 82 z "},"y":{"ha":799,"x_min":36,"x_max":763,"o":"m 763 774 q 669 694 700 749 l 547 485 q 536 453 536 465 q 549 418 536 435 q 481 353 481 401 l 478 149 q 551 54 476 90 q 485 3 539 13 l 464 0 q 393 24 421 0 q 331 3 365 3 l 306 7 q 247 58 253 19 q 331 165 331 101 l 331 283 l 325 353 q 256 424 321 401 q 267 461 267 440 q 256 499 267 476 l 174 667 q 81 754 149 717 q 36 774 60 765 q 96 828 46 818 q 108 829 100 829 l 121 832 q 186 808 160 832 q 257 833 214 833 l 279 832 q 347 779 335 821 q 306 719 306 757 q 314 690 308 697 l 400 507 l 503 692 l 507 715 q 469 779 507 754 q 536 828 485 821 l 553 829 q 621 807 593 829 q 679 824 643 822 l 706 819 q 745 802 732 814 q 763 774 758 790 z "},"z":{"ha":619,"x_min":28,"x_max":592,"o":"m 592 213 l 589 199 q 575 135 589 169 q 564 114 572 128 l 558 94 l 558 78 q 575 7 558 39 l 563 7 q 474 36 510 7 q 314 0 400 0 q 151 36 224 0 q 69 6 122 6 q 28 11 43 7 l 194 382 q 167 429 194 408 q 246 475 222 439 l 336 661 q 342 678 342 668 l 342 686 l 338 694 q 310 717 324 714 q 281 719 297 719 q 194 681 224 719 q 178 619 178 650 q 192 561 178 593 l 160 558 q 51 622 69 558 q 49 647 49 626 q 68 715 49 683 q 75 754 75 731 q 51 825 75 789 q 74 828 60 828 q 149 799 122 828 q 263 832 207 826 q 306 833 283 833 q 457 800 389 833 q 542 819 492 819 l 564 819 l 406 475 q 400 454 400 467 q 417 418 400 432 q 344 357 364 396 l 247 161 l 243 146 l 247 132 q 292 108 257 113 q 319 107 307 107 q 369 114 342 107 q 454 174 432 131 q 460 208 460 192 q 433 282 460 250 q 483 293 456 293 q 547 278 511 293 q 592 213 592 253 z "},"":{"ha":833,"x_min":0,"x_max":833,"o":"m 0 833 l 833 833 l 833 0 l 0 0 l 0 833 z "}}}
